<svg id="Layer_1" data-name="Layer 1" xmlns="http://www.w3.org/2000/svg" viewBox="0 0 144.18 131.25"><defs><style>.cls-1{fill:none;stroke:#90c3be;stroke-miterlimit:10;stroke-width:5px;}.cls-2{fill:#90c3be;}</style></defs><title>Calendar</title><rect class="cls-1" x="32" y="31.53" width="80.47" height="80.47"/><line class="cls-1" x1="32" y1="57.63" x2="112.47" y2="57.63"/><line class="cls-1" x1="54.91" y1="19" x2="54.91" y2="40.57"/><line class="cls-1" x1="88.61" y1="19" x2="88.61" y2="40.57"/><rect class="cls-2" x="40.09" y="67.52" width="9.43" height="9.43"/><rect class="cls-2" x="53.57" y="67.52" width="9.43" height="9.43"/><rect class="cls-2" x="67.04" y="67.52" width="9.43" height="9.43"/><rect class="cls-2" x="80.52" y="67.52" width="9.43" height="9.43"/><rect class="cls-2" x="94" y="67.52" width="9.43" height="9.43"/><rect class="cls-2" x="40.09" y="79.65" width="9.43" height="9.43"/><rect class="cls-2" x="53.57" y="79.65" width="9.43" height="9.43"/><rect class="cls-2" x="67.04" y="79.65" width="9.43" height="9.43"/><rect class="cls-2" x="80.52" y="79.65" width="9.43" height="9.43"/><rect class="cls-2" x="94" y="79.65" width="9.43" height="9.43"/><rect class="cls-2" x="40.09" y="93.13" width="9.43" height="9.43"/><rect class="cls-2" x="53.57" y="93.13" width="9.43" height="9.43"/><rect class="cls-2" x="67.04" y="93.13" width="9.43" height="9.43"/><rect class="cls-2" x="80.52" y="93.13" width="9.43" height="9.43"/><rect class="cls-2" x="94" y="93.13" width="9.43" height="9.43"/></svg>