<svg id="Layer_1" data-name="Layer 1" xmlns="http://www.w3.org/2000/svg" viewBox="0 0 123 119"><defs><style>.cls-1{fill:none;stroke:#9c9691;stroke-miterlimit:10;stroke-width:2px;}</style></defs><title>Organization</title><polygon class="cls-1" points="11.5 32.34 111.5 32.34 104.5 10.34 19.5 10.34 11.5 32.34"/><path class="cls-1" d="M11.5,49.34v-17H36.29v15C32.5,59.34,14.5,58.34,11.5,49.34Z"/><path class="cls-1" d="M36.5,49.34v-17H61.29v15C57.5,59.34,39.5,58.34,36.5,49.34Z"/><path class="cls-1" d="M61.5,49.34v-17H86.29v15C82.5,59.34,64.5,58.34,61.5,49.34Z"/><path class="cls-1" d="M86.5,49.34v-17h24.79v15C107.5,59.34,89.5,58.34,86.5,49.34Z"/><rect class="cls-1" x="70" y="66.84" width="25" height="42"/><rect class="cls-1" x="29" y="64.84" width="25" height="25"/><line class="cls-1" x1="15" y1="53.84" x2="15" y2="108.84"/><line class="cls-1" x1="110" y1="108.84" x2="14" y2="108.84"/><line class="cls-1" x1="109" y1="51.84" x2="109" y2="108.84"/></svg>