<svg id="Layer_1" data-name="Layer 1" xmlns="http://www.w3.org/2000/svg" viewBox="0 0 88 125"><defs><style>.cls-1{fill:none;stroke:#90c3be;stroke-miterlimit:10;stroke-width:2.81px;}</style></defs><title>Pricing</title><path class="cls-1" d="M42.38,112V99.23c-7.33-.13-14.92-2.4-19.35-5.56l3-8.47a33.71,33.71,0,0,0,18.2,5.43c9,0,15-5.18,15-12.39,0-6.95-4.93-11.25-14.29-15C32.14,58.14,24.17,52.33,24.17,41.33c0-10.5,7.46-18.46,19.09-20.36V8.2H51.1V20.47a33.71,33.71,0,0,1,16.44,4.42l-3.16,8.35a30.55,30.55,0,0,0-15.93-4.3c-9.74,0-13.4,5.81-13.4,10.87,0,6.58,4.67,9.86,15.67,14.41,13,5.31,19.6,11.89,19.6,23.14,0,10-7,19.34-20,21.49V112Z"/></svg>