<svg id="Layer_1" data-name="Layer 1" xmlns="http://www.w3.org/2000/svg" viewBox="0 0 121 117"><defs><style>.cls-1{fill:none;stroke:#90c3be;stroke-miterlimit:10;stroke-width:2px;}</style></defs><title>Tools</title><path class="cls-1" d="M41,26l0-16.19A1.79,1.79,0,0,0,39.25,8H7.88A.89.89,0,0,0,7,8.88V78.12a.89.89,0,0,0,.88.88H57.12a.89.89,0,0,0,.88-.88V25.2a1.12,1.12,0,0,0-.35-.81L41,9"/><line class="cls-1" x1="40" y1="26" x2="58" y2="26"/><line class="cls-1" x1="13" y1="23" x2="35" y2="23"/><line class="cls-1" x1="13" y1="32" x2="52" y2="32"/><line class="cls-1" x1="13" y1="41" x2="52" y2="41"/><line class="cls-1" x1="13" y1="50" x2="52" y2="50"/><line class="cls-1" x1="13" y1="59" x2="52" y2="59"/><line class="cls-1" x1="13" y1="68" x2="52" y2="68"/><path class="cls-1" d="M97,52l0-16.19A1.79,1.79,0,0,0,95.25,34H63.88a.89.89,0,0,0-.88.88v69.24a.89.89,0,0,0,.88.88h49.24a.89.89,0,0,0,.88-.88V51.2a1.12,1.12,0,0,0-.35-.81L97,35"/><line class="cls-1" x1="96" y1="52" x2="114" y2="52"/><rect class="cls-1" x="68" y="64" width="40" height="23"/><line class="cls-1" x1="74" y1="64" x2="74" y2="86"/><line class="cls-1" x1="90" y1="64" x2="90" y2="87"/><line class="cls-1" x1="68" y1="72" x2="108" y2="72"/><line class="cls-1" x1="68" y1="80" x2="108" y2="80"/></svg>